<svg xmlns="http://www.w3.org/2000/svg" xmlns:xlink="http://www.w3.org/1999/xlink" width="1732" zoomAndPan="magnify" viewBox="0 0 1299 1298.999944" height="1732" preserveAspectRatio="xMidYMid meet" version="1.0"><defs><g/></defs><g fill="#000000" fill-opacity="0"><g transform="translate(292.389555, 933.954657)"><g><path d="M 79.640625 6.125 C 148.78125 6.125 211.792969 -63.011719 246.800781 -149.65625 L 238.050781 -154.03125 C 187.289062 -87.519531 126.902344 -49.886719 144.40625 -117.273438 L 287.933594 -653.761719 L 136.527344 -635.382812 L 136.527344 -632.757812 C 137.402344 -620.503906 139.152344 -560.117188 123.402344 -500.605469 L 18.378906 -109.398438 C 0 -46.382812 16.628906 6.125 79.640625 6.125 Z M 79.640625 6.125 "/></g></g></g><g fill="#ffffff" fill-opacity="1"><g transform="translate(292.389555, 933.954657)"><g><path d="M 79.640625 -7.546875 C 109.207031 -7.546875 138.148438 -21.382812 166.464844 -49.054688 C 193.941406 -75.902344 216.492188 -111.144531 234.121094 -154.777344 L 246.800781 -149.65625 L 240.6875 -137.425781 L 231.933594 -141.800781 L 238.050781 -154.03125 L 248.921875 -145.734375 C 235.875 -128.640625 222.542969 -113.664062 208.929688 -100.808594 C 194.996094 -87.652344 182.546875 -78.421875 171.574219 -73.125 C 164.878906 -69.890625 158.78125 -68.210938 153.277344 -68.082031 C 145.140625 -67.890625 138.683594 -70.734375 133.90625 -76.605469 C 126.734375 -85.421875 125.820312 -100.125 131.167969 -120.710938 L 274.726562 -657.296875 L 287.933594 -653.761719 L 289.582031 -640.1875 L 138.175781 -621.808594 L 136.527344 -635.382812 L 150.203125 -635.382812 L 150.203125 -632.757812 L 136.527344 -632.757812 L 150.167969 -633.730469 C 151.132812 -620.21875 151.027344 -603.507812 149.851562 -583.597656 C 148 -552.265625 143.589844 -523.433594 136.621094 -497.105469 L 31.585938 -105.851562 C 22.804688 -75.738281 22.574219 -51.707031 30.894531 -33.757812 C 38.992188 -16.285156 55.242188 -7.546875 79.640625 -7.546875 Z M 79.640625 19.800781 C 61.859375 19.800781 46.648438 16.117188 34.015625 8.75 C 21.625 1.527344 12.316406 -8.804688 6.082031 -22.253906 C -5.117188 -46.410156 -5.417969 -76.640625 5.171875 -112.941406 L 110.179688 -504.105469 C 116.683594 -528.664062 120.804688 -555.699219 122.550781 -585.210938 C 123.65625 -603.933594 123.769531 -619.457031 122.886719 -631.78125 L 122.855469 -632.269531 L 122.855469 -647.496094 L 306.375 -669.773438 L 157.640625 -113.835938 C 155.816406 -106.816406 154.933594 -101.191406 154.996094 -96.972656 C 155.015625 -95.550781 155.136719 -94.441406 155.363281 -93.644531 C 155.402344 -93.503906 155.429688 -93.417969 155.445312 -93.382812 C 155.375 -93.523438 155.269531 -93.683594 155.125 -93.863281 C 154.261719 -94.921875 153.433594 -95.441406 152.636719 -95.421875 C 154.191406 -95.460938 156.539062 -96.238281 159.679688 -97.753906 C 168.113281 -101.824219 178.269531 -109.472656 190.152344 -120.695312 C 202.6875 -132.53125 215.03125 -146.410156 227.179688 -162.328125 L 234.042969 -171.324219 L 264.210938 -156.242188 L 259.480469 -144.535156 C 240.417969 -97.359375 215.785156 -59.011719 185.578125 -29.492188 C 151.949219 3.371094 116.636719 19.800781 79.640625 19.800781 Z M 79.640625 19.800781 "/></g></g></g><g fill="#eae6d2" fill-opacity="1"><g transform="translate(292.389555, 933.954657)"><g><path d="M 79.640625 6.125 C 148.78125 6.125 211.792969 -63.011719 246.800781 -149.65625 L 238.050781 -154.03125 C 187.289062 -87.519531 126.902344 -49.886719 144.40625 -117.273438 L 287.933594 -653.761719 L 136.527344 -635.382812 L 136.527344 -632.757812 C 137.402344 -620.503906 139.152344 -560.117188 123.402344 -500.605469 L 18.378906 -109.398438 C 0 -46.382812 16.628906 6.125 79.640625 6.125 Z M 79.640625 6.125 "/></g></g></g><g fill="#000000" fill-opacity="0"><g transform="translate(488.129927, 866.904017)"><g><path d="M -122.0625 162.75 C 7.792969 167.945312 119.464844 100.421875 165.347656 -70.988281 L 253.648438 -398.21875 L 380.90625 -398.21875 L 391.292969 -436.308594 L 264.035156 -436.308594 L 270.097656 -460.550781 C 291.738281 -538.460938 309.054688 -603.390625 351.472656 -603.390625 C 386.101562 -603.390625 410.339844 -547.121094 432.847656 -502.96875 L 437.175781 -502.96875 L 466.609375 -612.046875 C 427.652344 -627.628906 391.292969 -638.015625 348.875 -638.015625 C 268.367188 -638.015625 183.527344 -599.0625 148.035156 -465.742188 L 140.242188 -436.308594 L 72.71875 -436.308594 L 62.328125 -398.21875 L 129.855469 -398.21875 L 42.417969 -70.988281 C 9.523438 50.210938 -36.359375 112.539062 -122.0625 162.75 Z M -122.0625 162.75 "/></g></g></g><g fill="#ffffff" fill-opacity="1"><g transform="translate(488.129927, 866.904017)"><g><path d="M -121.523438 149.234375 C -56.296875 151.84375 -0.796875 135.871094 44.984375 101.3125 C 95.3125 63.316406 131.082031 4.71875 152.28125 -74.484375 L 243.289062 -411.746094 L 380.90625 -411.746094 L 380.90625 -398.21875 L 367.855469 -401.777344 L 378.246094 -439.871094 L 391.292969 -436.308594 L 391.292969 -422.785156 L 246.710938 -422.785156 L 257.015625 -464 L 257.0625 -464.171875 C 257.273438 -464.929688 257.628906 -466.210938 258.132812 -468.011719 C 265.070312 -493.007812 270.316406 -511.117188 273.875 -522.34375 C 279.84375 -541.179688 285.695312 -556.519531 291.433594 -568.359375 C 307.109375 -600.730469 327.125 -616.914062 351.472656 -616.914062 C 369.816406 -616.914062 387.175781 -605.777344 403.554688 -583.503906 C 409.300781 -575.691406 415.402344 -565.894531 421.863281 -554.113281 C 425.625 -547.25 431.023438 -536.777344 438.066406 -522.695312 C 441.121094 -516.582031 443.398438 -512.054688 444.898438 -509.113281 L 432.847656 -502.96875 L 432.847656 -516.496094 L 437.175781 -516.496094 L 437.175781 -502.96875 L 424.117188 -506.492188 L 453.550781 -615.570312 L 466.609375 -612.046875 L 461.585938 -599.488281 C 440.894531 -607.765625 422.34375 -613.839844 405.933594 -617.710938 C 386.777344 -622.230469 367.757812 -624.492188 348.875 -624.492188 C 306.234375 -624.492188 269.8125 -613.328125 239.617188 -591 C 202.894531 -563.847656 176.726562 -520.9375 161.105469 -462.265625 L 150.65625 -422.785156 L 72.71875 -422.785156 L 72.71875 -436.308594 L 85.769531 -432.75 L 75.378906 -394.660156 L 62.328125 -398.21875 L 62.328125 -411.746094 L 147.46875 -411.746094 L 55.488281 -67.496094 C 38.773438 -5.917969 17.28125 43.359375 -8.992188 80.335938 C -34.835938 116.710938 -70.246094 148.070312 -115.226562 174.421875 L -122.0625 162.75 Z M -122.605469 176.265625 L -168.742188 174.421875 L -128.902344 151.078125 C -87.265625 126.6875 -54.644531 97.882812 -31.046875 64.667969 C -6.636719 30.3125 13.496094 -16.070312 29.351562 -74.480469 L 116.785156 -401.710938 L 129.855469 -398.21875 L 129.855469 -384.691406 L 44.621094 -384.691406 L 62.386719 -449.835938 L 140.242188 -449.835938 L 140.242188 -436.308594 L 127.167969 -439.773438 L 134.960938 -469.222656 C 152.207031 -534 181.730469 -581.84375 223.53125 -612.75 C 258.507812 -638.613281 300.289062 -651.542969 348.875 -651.542969 C 369.855469 -651.542969 390.945312 -649.042969 412.148438 -644.039062 C 429.863281 -639.859375 449.691406 -633.382812 471.632812 -624.605469 L 482.804688 -620.136719 L 447.535156 -489.441406 L 424.558594 -489.441406 L 420.796875 -496.824219 C 419.265625 -499.828125 416.953125 -504.421875 413.867188 -510.597656 C 400.109375 -538.121094 389.40625 -557.082031 381.761719 -567.480469 C 370.785156 -582.402344 360.691406 -589.863281 351.472656 -589.863281 C 338.429688 -589.863281 326.53125 -578.765625 315.78125 -556.566406 C 310.613281 -545.898438 305.242188 -531.765625 299.664062 -514.171875 C 296.207031 -503.257812 291.050781 -485.457031 284.199219 -460.777344 C 283.734375 -459.101562 283.378906 -457.820312 283.128906 -456.929688 L 270.097656 -460.550781 L 283.21875 -457.269531 L 277.160156 -433.03125 L 264.035156 -436.308594 L 264.035156 -449.835938 L 409.003906 -449.835938 L 391.238281 -384.691406 L 253.648438 -384.691406 L 253.648438 -398.21875 L 266.707031 -394.695312 L 178.414062 -67.488281 C 155.609375 17.707031 116.566406 81.171875 61.28125 122.902344 C 10.355469 161.34375 -50.9375 179.132812 -122.605469 176.265625 Z M -122.605469 176.265625 "/></g></g></g><g fill="#eae6d2" fill-opacity="1"><g transform="translate(488.129927, 866.904017)"><g><path d="M -122.0625 162.75 C 7.792969 167.945312 119.464844 100.421875 165.347656 -70.988281 L 253.648438 -398.21875 L 380.90625 -398.21875 L 391.292969 -436.308594 L 264.035156 -436.308594 L 270.097656 -460.550781 C 291.738281 -538.460938 309.054688 -603.390625 351.472656 -603.390625 C 386.101562 -603.390625 410.339844 -547.121094 432.847656 -502.96875 L 437.175781 -502.96875 L 466.609375 -612.046875 C 427.652344 -627.628906 391.292969 -638.015625 348.875 -638.015625 C 268.367188 -638.015625 183.527344 -599.0625 148.035156 -465.742188 L 140.242188 -436.308594 L 72.71875 -436.308594 L 62.328125 -398.21875 L 129.855469 -398.21875 L 42.417969 -70.988281 C 9.523438 50.210938 -36.359375 112.539062 -122.0625 162.75 Z M -122.0625 162.75 "/></g></g></g><g fill="#000000" fill-opacity="0"><g transform="translate(693.263117, 866.904017)"><g><path d="M -122.0625 162.75 C 7.792969 167.945312 119.464844 100.421875 165.347656 -70.988281 L 253.648438 -398.21875 L 380.90625 -398.21875 L 391.292969 -436.308594 L 264.035156 -436.308594 L 270.097656 -460.550781 C 291.738281 -538.460938 309.054688 -603.390625 351.472656 -603.390625 C 386.101562 -603.390625 410.339844 -547.121094 432.847656 -502.96875 L 437.175781 -502.96875 L 466.609375 -612.046875 C 427.652344 -627.628906 391.292969 -638.015625 348.875 -638.015625 C 268.367188 -638.015625 183.527344 -599.0625 148.035156 -465.742188 L 140.242188 -436.308594 L 72.71875 -436.308594 L 62.328125 -398.21875 L 129.855469 -398.21875 L 42.417969 -70.988281 C 9.523438 50.210938 -36.359375 112.539062 -122.0625 162.75 Z M -122.0625 162.75 "/></g></g></g><g fill="#ffffff" fill-opacity="1"><g transform="translate(693.263117, 866.904017)"><g><path d="M -121.523438 149.234375 C -56.296875 151.84375 -0.796875 135.871094 44.984375 101.3125 C 95.3125 63.316406 131.082031 4.71875 152.28125 -74.484375 L 243.289062 -411.746094 L 380.90625 -411.746094 L 380.90625 -398.21875 L 367.855469 -401.777344 L 378.246094 -439.871094 L 391.292969 -436.308594 L 391.292969 -422.785156 L 246.710938 -422.785156 L 257.015625 -464 L 257.0625 -464.171875 C 257.273438 -464.929688 257.628906 -466.210938 258.132812 -468.011719 C 265.070312 -493.007812 270.316406 -511.117188 273.875 -522.34375 C 279.84375 -541.179688 285.695312 -556.519531 291.433594 -568.359375 C 307.109375 -600.730469 327.125 -616.914062 351.472656 -616.914062 C 369.816406 -616.914062 387.175781 -605.777344 403.554688 -583.503906 C 409.300781 -575.691406 415.402344 -565.894531 421.863281 -554.113281 C 425.625 -547.25 431.023438 -536.777344 438.066406 -522.695312 C 441.121094 -516.582031 443.398438 -512.054688 444.898438 -509.113281 L 432.847656 -502.96875 L 432.847656 -516.496094 L 437.175781 -516.496094 L 437.175781 -502.96875 L 424.117188 -506.492188 L 453.550781 -615.570312 L 466.609375 -612.046875 L 461.585938 -599.488281 C 440.894531 -607.765625 422.34375 -613.839844 405.933594 -617.710938 C 386.777344 -622.230469 367.757812 -624.492188 348.875 -624.492188 C 306.234375 -624.492188 269.8125 -613.328125 239.617188 -591 C 202.894531 -563.847656 176.726562 -520.9375 161.105469 -462.265625 L 150.65625 -422.785156 L 72.71875 -422.785156 L 72.71875 -436.308594 L 85.769531 -432.75 L 75.378906 -394.660156 L 62.328125 -398.21875 L 62.328125 -411.746094 L 147.46875 -411.746094 L 55.488281 -67.496094 C 38.773438 -5.917969 17.28125 43.359375 -8.992188 80.335938 C -34.835938 116.710938 -70.246094 148.070312 -115.226562 174.421875 L -122.0625 162.75 Z M -122.605469 176.265625 L -168.742188 174.421875 L -128.902344 151.078125 C -87.265625 126.6875 -54.644531 97.882812 -31.046875 64.667969 C -6.636719 30.3125 13.496094 -16.070312 29.351562 -74.480469 L 116.785156 -401.710938 L 129.855469 -398.21875 L 129.855469 -384.691406 L 44.621094 -384.691406 L 62.386719 -449.835938 L 140.242188 -449.835938 L 140.242188 -436.308594 L 127.167969 -439.773438 L 134.960938 -469.222656 C 152.207031 -534 181.730469 -581.84375 223.53125 -612.75 C 258.507812 -638.613281 300.289062 -651.542969 348.875 -651.542969 C 369.855469 -651.542969 390.945312 -649.042969 412.148438 -644.039062 C 429.863281 -639.859375 449.691406 -633.382812 471.632812 -624.605469 L 482.804688 -620.136719 L 447.535156 -489.441406 L 424.558594 -489.441406 L 420.796875 -496.824219 C 419.265625 -499.828125 416.953125 -504.421875 413.867188 -510.597656 C 400.109375 -538.121094 389.40625 -557.082031 381.761719 -567.480469 C 370.785156 -582.402344 360.691406 -589.863281 351.472656 -589.863281 C 338.429688 -589.863281 326.53125 -578.765625 315.78125 -556.566406 C 310.613281 -545.898438 305.242188 -531.765625 299.664062 -514.171875 C 296.207031 -503.257812 291.050781 -485.457031 284.199219 -460.777344 C 283.734375 -459.101562 283.378906 -457.820312 283.128906 -456.929688 L 270.097656 -460.550781 L 283.21875 -457.269531 L 277.160156 -433.03125 L 264.035156 -436.308594 L 264.035156 -449.835938 L 409.003906 -449.835938 L 391.238281 -384.691406 L 253.648438 -384.691406 L 253.648438 -398.21875 L 266.707031 -394.695312 L 178.414062 -67.488281 C 155.609375 17.707031 116.566406 81.171875 61.28125 122.902344 C 10.355469 161.34375 -50.9375 179.132812 -122.605469 176.265625 Z M -122.605469 176.265625 "/></g></g></g><g fill="#eae6d2" fill-opacity="1"><g transform="translate(693.263117, 866.904017)"><g><path d="M -122.0625 162.75 C 7.792969 167.945312 119.464844 100.421875 165.347656 -70.988281 L 253.648438 -398.21875 L 380.90625 -398.21875 L 391.292969 -436.308594 L 264.035156 -436.308594 L 270.097656 -460.550781 C 291.738281 -538.460938 309.054688 -603.390625 351.472656 -603.390625 C 386.101562 -603.390625 410.339844 -547.121094 432.847656 -502.96875 L 437.175781 -502.96875 L 466.609375 -612.046875 C 427.652344 -627.628906 391.292969 -638.015625 348.875 -638.015625 C 268.367188 -638.015625 183.527344 -599.0625 148.035156 -465.742188 L 140.242188 -436.308594 L 72.71875 -436.308594 L 62.328125 -398.21875 L 129.855469 -398.21875 L 42.417969 -70.988281 C 9.523438 50.210938 -36.359375 112.539062 -122.0625 162.75 Z M -122.0625 162.75 "/></g></g></g></svg>